<svg xmlns="http://www.w3.org/2000/svg" viewBox="0 0 24 24" width="24" height="24">
  <path fill="currentColor" d="M12,2C6.48,2 2,6.48 2,12C2,17.52 6.48,22 12,22C17.52,22 22,17.52 22,12C22,6.48 17.52,2 12,2M12,4C16.42,4 20,7.58 20,12C20,16.42 16.42,20 12,20C7.58,20 4,16.42 4,12C4,7.58 7.58,4 12,4M10,12C10,10.9 10.9,10 12,10C13.1,10 14,10.9 14,12C14,13.1 13.1,14 12,14C10.9,14 10,13.1 10,12M4.26,14C4.1,13.36 4,12.69 4,12C4,11.31 4.1,10.64 4.26,10H7C6.9,10.64 6.8,11.31 6.8,12C6.8,12.69 6.88,13.36 7,14M6.55,16H9.45C9.75,16.64 10.16,17.23 10.65,17.77C9.66,17.45 8.75,16.85 8,16.09C7.46,15.5 6.94,14.86 6.55,14.1M9.45,8H6.55C6.94,7.14 7.46,6.5 8,5.91C8.75,5.15 9.66,4.55 10.65,4.23C10.16,4.77 9.75,5.36 9.45,6M12,6.8C11.3,6.8 10.64,6.9 10,7H14C13.36,6.9 12.7,6.8 12,6.8M16.94,8H14.05C14.35,7.36 14.75,6.77 15.25,6.23C16.24,6.55 17.15,7.15 17.9,7.91C18.44,8.5 18.96,9.14 19.35,9.9M14.05,16H16.94C16.55,16.86 16.03,17.5 15.5,18.09C14.75,18.85 13.84,19.45 12.85,19.77C13.34,19.23 13.75,18.64 14.05,18M12,17.2C12.7,17.2 13.36,17.1 14,17H10C10.64,17.1 11.3,17.2 12,17.2M17,14H19.74C19.9,13.36 20,12.69 20,12C20,11.31 19.9,10.64 19.74,10H17C17.1,10.64 17.2,11.31 17.2,12C17.2,12.69 17.12,13.36 17,14Z" />
</svg>
